PathFileType	4	(X/Y/Z)	/Users/itak/Documents/Research/Walk-IL/dataset/trc/00366_00011.trc
DataRate	CameraRate	NumFrames	NumMarkers	Units	OrigDataRate	OrigDataStartFrame	OrigNumFrames
100.000000	100.000000	4	56	mm	100.000000	0	392
Frame#	Time	RPSI			LPSI			L3			STRN			T10			C7			CLAV			RBAK			LBAK			LSHO			LUPA			LAEL			LAOL			LWPS			LFRA			LIFD			LHPS			LHTS			RSHO			RUPA			RAEL			RAOL			RWTS			RWPS			RFRA			RIFD			RHTS			RHPS			RBHD			LFHD			RFHD			LBHD			LHIP			RHIP			RASI			LASI			LKNE			LTHI			LANK			LTIP			LTOE			LMT1			LMT5			LHEE			RKNE			RTHI			RANK			RTIP			RTOE			RMT1			RMT5			RHEE			LWTS			*53			*54			*55			
		X1	Y1	Z1	X2	Y2	Z2	X3	Y3	Z3	X4	Y4	Z4	X5	Y5	Z5	X6	Y6	Z6	X7	Y7	Z7	X8	Y8	Z8	X9	Y9	Z9	X10	Y10	Z10	X11	Y11	Z11	X12	Y12	Z12	X13	Y13	Z13	X14	Y14	Z14	X15	Y15	Z15	X16	Y16	Z16	X17	Y17	Z17	X18	Y18	Z18	X19	Y19	Z19	X20	Y20	Z20	X21	Y21	Z21	X22	Y22	Z22	X23	Y23	Z23	X24	Y24	Z24	X25	Y25	Z25	X26	Y26	Z26	X27	Y27	Z27	X28	Y28	Z28	X29	Y29	Z29	X30	Y30	Z30	X31	Y31	Z31	X32	Y32	Z32	X33	Y33	Z33	X34	Y34	Z34	X35	Y35	Z35	X36	Y36	Z36	X37	Y37	Z37	X38	Y38	Z38	X39	Y39	Z39	X40	Y40	Z40	X41	Y41	Z41	X42	Y42	Z42	X43	Y43	Z43	X44	Y44	Z44	X45	Y45	Z45	X46	Y46	Z46	X47	Y47	Z47	X48	Y48	Z48	X49	Y49	Z49	X50	Y50	Z50	X51	Y51	Z51	X52	Y52	Z52	X53	Y53	Z53	X54	Y54	Z54	X55	Y55	Z55	X56	Y56	Z56	

1	0	-1336.29931640625	986.7634887695312	-35.41173934936523	-1338.676147460938	986.239501953125	-164.6715545654297	-1336.085571289062	1037.704833984375	-96.04792785644531	-1114.574951171875	1232.08544921875	-111.8683776855469	-1351.132080078125	1153.108642578125	-112.1332168579102	-1324.063720703125	1403.83740234375	-130.0536804199219	-1164.364379882812	1353.68408203125	-117.6201782226562	-1366.028076171875	1263.150756835938	-63.2564811706543	-1329.512329101562	1365.593139648438	-231.463134765625	-1241.966552734375	1386.422485351562	-284.5418395996094	-1253.512329101562	1264.331420898438	-351.4215087890625	-1231.57177734375	1060.7578125	-361.7485656738281	-1296.56103515625	1046.064453125	-308.8537902832031	-1175.162963867188	808.5182495117188	-371.8961791992188	-1215.610107421875	957.1970825195312	-367.8481140136719	-1200.914916992188	638.2609252929688	-242.8809051513672	-1180.399291992188	737.9329833984375	-366.8853454589844	-1127.850341796875	739.36572265625	-328.4740295410156	-1272.521118164062	1395.224853515625	35.89181518554688	-1283.348266601562	1330.102294921875	98.59175872802734	-1266.953002929688	1064.204956054688	139.3306121826172	-1302.498413085938	1054.045043945312	52.19832992553711	-1142.11328125	841.0615234375	93.75856018066406	-1176.156494140625	826.0691528320312	162.4911499023438	-1237.903198242188	998.140380859375	149.8542327880859	-1117.383178710938	669.1004028320312	112.2275009155273	-1108.566040039062	742.0037231445312	111.4817199707031	-1157.21435546875	742.2848510742188	160.3017272949219	-1261.160888671875	1598.953247070312	-17.20922088623047	-1157.807373046875	1645.17919921875	-191.7974395751953	-1124.910034179688	1640.420166015625	-96.64122009277344	-1329.958251953125	1596.030151367188	-142.1861267089844	-1255.665649414062	925.092529296875	-269.5943603515625	-1255.976806640625	930.7562866210938	72.47154998779297	-1150.3203125	954.9902954101562	26.50979804992676	-1132.995727539062	948.4195556640625	-212.2674255371094	-1241.039306640625	466.3370361328125	-261.2615966796875	-1227.011474609375	604.4535522460938	-268.6521301269531	-1322.712646484375	47.29560089111328	-245.5041656494141	-1283.964599609375	251.5623779296875	-266.1111145019531	-1115.1630859375	46.78738784790039	-190.0282592773438	-1181.725219726562	39.43413162231445	-146.659423828125	-1196.089965820312	43.85459899902344	-260.9583435058594	-1353.494262695312	44.87661361694336	-176.567626953125	-1256.935791015625	465.4051208496094	69.93438720703125	-1195.955810546875	720.6262817382812	82.90203857421875	-1319.240600585938	50.94880676269531	65.26217651367188	-1255.186401367188	349.3407897949219	66.20797729492188	-1124.85302734375	49.08953475952148	14.02390384674072	-1179.697631835938	44.86112594604492	-27.19037628173828	-1216.402954101562	41.10116195678711	84.88190460205078	-1369.18017578125	51.19124603271484	16.38586044311523	-1140.120727539062	818.0285034179688	-313.1929626464844	nan	nan	nan	nan	nan	nan	nan	nan	nan	
2	0.01	-1336.306274414062	986.67724609375	-35.57171249389648	-1338.7421875	986.1824340820312	-164.8629608154297	-1336.136108398438	1037.67333984375	-96.21339416503906	-1114.614013671875	1232.049682617188	-112.0983123779297	-1351.134521484375	1153.145141601562	-112.2217559814453	-1323.97509765625	1403.8525390625	-130.2524719238281	-1164.266723632812	1353.689086914062	-117.9172134399414	-1365.961181640625	1263.22021484375	-63.3431282043457	-1329.489990234375	1365.538940429688	-231.6625061035156	-1241.986328125	1386.341186523438	-284.80322265625	-1253.573852539062	1264.172607421875	-351.5791625976562	-1231.461791992188	1060.582153320312	-361.5575866699219	-1296.481689453125	1045.934814453125	-308.7138366699219	-1174.711181640625	808.3724365234375	-371.0632934570312	-1215.333862304688	956.990478515625	-367.375732421875	-1193.93408203125	640.0235595703125	-248.3134765625	-1179.689208984375	737.7830810546875	-365.8389892578125	-1127.417602539062	739.393310546875	-327.3780517578125	-1272.308837890625	1395.334350585938	35.66105270385742	-1283.06884765625	1330.23876953125	98.46921539306641	-1266.603637695312	1064.338012695312	139.2333984375	-1302.371337890625	1054.215698242188	52.14797210693359	-1142.277709960938	841.050048828125	94.04440307617188	-1176.522338867188	826.052734375	162.6946105957031	-1237.762939453125	998.2621459960938	149.8236694335938	-1118.496826171875	668.8639526367188	112.7038345336914	-1109.292236328125	741.5963134765625	111.7233200073242	-1157.963256835938	742.2505493164062	160.5845336914062	-1261.960815429688	1599.3994140625	-18.09915351867676	-1156.535522460938	1644.704345703125	-191.5451354980469	-1124.729858398438	1640.0439453125	-96.01263427734375	-1329.708251953125	1596.664672851562	-144.0799560546875	-1255.698364257812	925.102294921875	-269.783447265625	-1255.9638671875	930.61865234375	72.28892517089844	-1150.269287109375	954.9885864257812	26.34624481201172	-1133.030151367188	948.4259643554688	-212.3310089111328	-1240.747436523438	466.2948608398438	-261.3372497558594	-1227.103759765625	604.5227661132812	-268.8468017578125	-1322.701293945312	47.30749893188477	-245.4784240722656	-1283.882202148438	251.6085510253906	-266.0939331054688	-1115.155517578125	46.80671691894531	-190.0310211181641	-1181.70458984375	39.42401885986328	-146.6605682373047	-1196.083129882812	43.86568069458008	-260.9449157714844	-1353.497802734375	44.87357330322266	-176.5247955322266	-1256.732543945312	465.3121337890625	69.91295623779297	-1195.92822265625	720.6321411132812	82.79745483398438	-1319.265625	50.93672561645508	65.27101135253906	-1255.082641601562	349.3030700683594	66.18849945068359	-1124.861572265625	49.12580871582031	14.03188514709473	-1179.705932617188	44.88027572631836	-27.19087219238281	-1216.413818359375	41.10659408569336	84.880859375	-1369.247314453125	51.17731094360352	16.38201141357422	-1139.68896484375	818.0779418945312	-312.2735290527344	nan	nan	nan	nan	nan	nan	nan	nan	nan	
3	0.02	-1336.302612304688	986.5731201171875	-35.78044128417969	-1338.810302734375	986.1185913085938	-165.1143188476562	-1336.192993164062	1037.628173828125	-96.43560028076172	-1114.643676757812	1232.004028320312	-112.3785705566406	-1351.134887695312	1153.185668945312	-112.3339385986328	-1323.857299804688	1403.86865234375	-130.5101776123047	-1164.161254882812	1353.68701171875	-118.2927932739258	-1365.873046875	1263.302490234375	-63.45961761474609	-1329.483520507812	1365.463500976562	-231.9308013916016	-1242.013671875	1386.224609375	-285.145263671875	-1253.646240234375	1263.956298828125	-351.7751159667969	-1231.3212890625	1060.345458984375	-361.3077392578125	-1296.390380859375	1045.7587890625	-308.5379638671875	-1174.126586914062	808.179931640625	-370.0066528320312	-1215.003173828125	956.7225952148438	-366.7927856445312	-1185.552490234375	642.1229858398438	-254.6595916748047	-1178.7802734375	737.58740234375	-364.5069274902344	-1126.819946289062	739.42724609375	-325.9802551269531	-1272.047485351562	1395.477294921875	35.36099243164062	-1282.731689453125	1330.419799804688	98.2957763671875	-1266.1689453125	1064.503295898438	139.1089477539062	-1302.213989257812	1054.42919921875	52.08417129516602	-1142.55615234375	841.012939453125	94.38925933837891	-1176.94921875	826.0341186523438	162.9186401367188	-1237.567016601562	998.418212890625	149.7761840820312	-1119.853271484375	668.554931640625	113.2597732543945	-1110.175170898438	741.1254272460938	112.0035552978516	-1158.887329101562	742.2389526367188	160.9213256835938	-1262.949340820312	1599.957153320312	-19.23103523254395	-1154.911499023438	1644.1015625	-191.2116394042969	-1124.497436523438	1639.566162109375	-95.21895599365234	-1329.312744140625	1597.427978515625	-146.4200592041016	-1255.731079101562	925.1219482421875	-270.0369873046875	-1255.95947265625	930.4531860351562	72.05662536621094	-1150.2021484375	954.9884643554688	26.14773941040039	-1133.044311523438	948.4417724609375	-212.4195404052734	-1240.322143554688	466.2400207519531	-261.4054260253906	-1227.0771484375	604.57421875	-269.0247497558594	-1322.676635742188	47.32944488525391	-245.4407806396484	-1283.70703125	251.6459045410156	-266.0293884277344	-1115.141357421875	46.82979202270508	-190.0282440185547	-1181.675048828125	39.40406036376953	-146.6577453613281	-1196.076538085938	43.8891716003418	-260.9206848144531	-1353.505981445312	44.87302398681641	-176.4689788818359	-1256.474853515625	465.1946411132812	69.87982940673828	-1195.894775390625	720.6390991210938	82.66896820068359	-1319.296630859375	50.91701126098633	65.28608703613281	-1254.948974609375	349.2530517578125	66.17189025878906	-1124.872436523438	49.16873931884766	14.04310989379883	-1179.716674804688	44.90301895141602	-27.19057273864746	-1216.42919921875	41.11285400390625	84.87882232666016	-1369.330932617188	51.15780258178711	16.3820972442627	-1139.093139648438	818.1792602539062	-311.12060546875	nan	nan	nan	nan	nan	nan	nan	nan	nan	
4	0.03	-1336.28076171875	986.4591064453125	-36.03415679931641	-1338.86865234375	986.0552368164062	-165.4208068847656	-1336.247314453125	1037.56982421875	-96.71094512939453	-1114.653686523438	1231.947143554688	-112.6967163085938	-1351.132080078125	1153.226196289062	-112.4670867919922	-1323.712036132812	1403.883666992188	-130.821533203125	-1164.056640625	1353.675048828125	-118.7330703735352	-1365.76416015625	1263.392822265625	-63.60537719726562	-1329.498413085938	1365.36669921875	-232.2644348144531	-1242.046997070312	1386.07080078125	-285.5595703125	-1253.722534179688	1263.683471679688	-352.0008544921875	-1231.155029296875	1060.050170898438	-361.0057067871094	-1296.294189453125	1045.537231445312	-308.3328552246094	-1173.423095703125	807.944580078125	-368.7638549804688	-1214.634155273438	956.4002685546875	-366.1260070800781	-1176.318237304688	644.412841796875	-261.406982421875	-1177.699951171875	737.3506469726562	-362.9353942871094	-1126.044555664062	739.478515625	-324.3283386230469	-1271.751586914062	1395.650512695312	34.99863815307617	-1282.353759765625	1330.641479492188	98.06898498535156	-1265.671508789062	1064.695556640625	138.9601287841797	-1302.031982421875	1054.676025390625	52.00919342041016	-1142.95458984375	840.9434814453125	94.76210021972656	-1177.401733398438	826.0181274414062	163.1400604248047	-1237.312622070312	998.604736328125	149.7085266113281	-1121.374633789062	668.1862182617188	113.8436126708984	-1111.166381835938	740.6181030273438	112.2967758178711	-1159.931518554688	742.2550659179688	161.2917938232422	-1264.072509765625	1600.602783203125	-20.5677661895752	-1152.99169921875	1643.393188476562	-190.8044891357422	-1124.21533203125	1639.003173828125	-94.29521942138672	-1328.744506835938	1598.274169921875	-149.0913848876953	-1255.753540039062	925.1546630859375	-270.3505554199219	-1255.969604492188	930.2721557617188	71.78022003173828	-1150.119995117188	954.9895629882812	25.92526245117188	-1133.018920898438	948.4727172851562	-212.5372314453125	-1239.7470703125	466.172119140625	-261.4486389160156	-1226.878662109375	604.59423828125	-269.1565551757812	-1322.635131835938	47.36719131469727	-245.3868103027344	-1283.412719726562	251.6631469726562	-265.9029846191406	-1115.117919921875	46.85385894775391	-190.0174865722656	-1181.635375976562	39.37071228027344	-146.6483459472656	-1196.071044921875	43.92975234985352	-260.88134765625	-1353.519653320312	44.87531661987305	-176.3993835449219	-1256.177978515625	465.0630187988281	69.83476257324219	-1195.857177734375	720.6471557617188	82.52047729492188	-1319.33251953125	50.88894271850586	65.3082275390625	-1254.788818359375	349.1924438476562	66.16010284423828	-1124.885498046875	49.21572875976562	14.05731964111328	-1179.729736328125	44.92728042602539	-27.1895580291748	-1216.448364257812	41.1192512512207	84.87557983398438	-1369.425537109375	51.13280868530273	16.38866233825684	-1138.307739257812	818.357666015625	-309.7900390625	nan	nan	nan	nan	nan	nan	nan	nan	nan	
